<svg xmlns="http://www.w3.org/2000/svg" width="120" height="60" viewBox="0 0 120 60" role="img" aria-labelledby="title">
  <title id="title">dbt</title>
  <rect width="120" height="60" rx="10" fill="#ff694b"/>
  <circle cx="31" cy="30" r="16" fill="#ffffff" opacity=".18"/>
  <path d="M22 34c0-8 5-14 13-14 5 0 9 2 12 6l-5 4c-2-3-4-4-7-4-4 0-7 3-7 8s3 8 7 8c3 0 5-1 7-4l5 4c-3 4-7 6-12 6-8 0-13-6-13-14z" fill="#ffffff"/>
  <text x="58" y="38" fill="#ffffff" font-family="Arial, Helvetica, sans-serif" font-size="28" font-weight="800">dbt</text>
</svg>
